<?xml version="1.0" standalone="no"?><svg xmlns="http://www.w3.org/2000/svg" viewBox="0 0 1440 320"><path fill="#d4af37" fill-opacity="1" d="M0,256L20,261.3C40,267,80,277,120,282.7C160,288,200,288,240,240C280,192,320,96,360,69.3C400,43,440,85,480,101.3C520,117,560,107,600,122.7C640,139,680,181,720,165.3C760,149,800,75,840,64C880,53,920,107,960,133.3C1000,160,1040,160,1080,160C1120,160,1160,160,1200,144C1240,128,1280,96,1320,90.7C1360,85,1400,107,1420,117.3L1440,128L1440,0L1420,0C1400,0,1360,0,1320,0C1280,0,1240,0,1200,0C1160,0,1120,0,1080,0C1040,0,1000,0,960,0C920,0,880,0,840,0C800,0,760,0,720,0C680,0,640,0,600,0C560,0,520,0,480,0C440,0,400,0,360,0C320,0,280,0,240,0C200,0,160,0,120,0C80,0,40,0,20,0L0,0Z"></path></svg>